<?xml version="1.0" encoding="UTF-8"?>
<svg width="251px" height="116px" viewBox="0 0 251 116" version="1.1" xmlns="http://www.w3.org/2000/svg" xmlns:xlink="http://www.w3.org/1999/xlink">
    <!-- Generator: Sketch 49.2 (51160) - http://www.bohemiancoding.com/sketch -->
    <title>1</title>
    <desc>Created with Sketch.</desc>
    <defs></defs>
    <g id="Page-1" stroke="none" stroke-width="1" fill="none" fill-rule="evenodd">
        <g id="Apple-TV-Copy" transform="translate(-95.000000, -28.000000)">
            <g id="Page-1" transform="translate(110.000000, 43.000000)">
                <g id="Group-5">
                    <path d="M86,43 C86,66.7484838 66.7489584,86 43.0010601,86 C19.2531617,86 0,66.7484838 0,43 C0,19.2515162 19.2531617,0 43.0010601,0 C66.7489584,0 86,19.2515162 86,43" id="Fill-1" fill="#0C0E28"></path>
                    <path d="M39.4299865,15.6522543 C25.8112652,14.4774306 13.9328199,18.8175167 6.27772755,20.9791078 C6.60668217,20.4466337 6.90804705,19.8909168 7.25822455,19.3711207 C14.537672,15.743113 24.3299083,10 36.5776316,10 C50.9179309,10 63.1996108,15.9121523 66.4615673,17.6300151 C66.8605574,17.8370883 66.8987586,18.3906923 66.5358474,18.6569293 L62.1002657,21.9067114 C61.9113821,22.0440559 61.6651967,22.0651858 61.4572125,21.9574232 C59.6575123,21.0213676 50.7184358,16.6263437 39.4299865,15.6522543 Z M67.8559104,35.9980455 C65.2730861,34.1428383 49.3304595,23.2757191 30.2489692,23.2757191 C15.0512657,23.2757191 8.64620083,27.1509469 2.33027209,29.316764 C2.56584605,28.6321545 2.80778687,27.949658 3.07731743,27.2840654 C10.5329148,23.2714931 20.7198966,17.4016006 35.953679,18.2193286 C55.1264277,19.2483558 69.916652,29.1878714 73.1213067,31.5079369 C73.4502613,31.7445921 73.4545059,32.2305803 73.1319181,32.4778004 L68.5859775,35.9853675 C68.3716264,36.1501809 68.0766284,36.1565199 67.8559104,35.9980455 Z M37.612247,33.2927815 C35.9950636,32.7877763 27.932492,30.4803888 18.3737073,31.522094 C11.9771317,32.2172684 6.11537253,34.3894245 0.546489129,36.4707219 C0.652603524,35.8051293 0.729005887,35.1310848 0.8669546,34.4802831 C4.34538444,32.4454716 8.13791288,30.3430443 13.2950724,28.7202662 C23.5733126,25.4873881 32.3150164,24.8703943 42.9858799,28.3526056 C43.4506609,28.502628 43.5504085,29.1196218 43.1599075,29.4154407 L38.1619195,33.1955838 C38.0048702,33.3160244 37.8011306,33.3519453 37.612247,33.2927815 Z M27.3562908,40.040411 C25.758208,39.7889649 16.403163,38.4472148 8.21749868,40.0784448 C5.17413786,40.6848736 2.48307682,41.5089406 0,42.3858324 C0.0148560152,41.6188162 0.0594240607,40.858139 0.116725833,40.0974618 C4.12997222,38.0563112 8.55918703,36.201104 13.2176089,35.4129579 C23.0353127,33.745807 26.694137,33.9676712 32.886973,35.1361559 C33.4196673,35.2375796 33.5703497,35.926415 33.1267915,36.2349119 L27.7977267,39.9368744 C27.6661448,40.027733 27.5112178,40.0657669 27.3562908,40.040411 Z M77,69.4655186 C75.7520947,71.0692797 74.4044419,72.5906342 72.9443079,74 C62.7063911,64.4027891 40.9147392,47.4692692 14.5453122,47.4692692 C9.29901658,47.4692692 4.57480376,48.0862629 0.383285191,48.9842846 C0.243214191,47.9468054 0.149833524,46.8987613 0.086164888,45.8401521 C5.81209759,43.7525158 12.2150401,42.1783365 18.6073712,42.1783365 C35.7597019,42.1783365 56.7767188,50.5817068 77,69.4655186 Z M51.8237233,69.7501387 C49.1284177,67.6540503 32.3559766,55.4282771 7.93056536,55.4282771 C5.94622619,55.4282771 3.90458524,55.6057685 1.8629443,55.8931354 C1.44909817,54.5577243 1.09892067,53.1927313 0.816656377,51.8044954 C4.38210002,50.7987111 8.0621472,50.1394575 11.680648,50.1394575 C28.5125132,50.1394575 42.1078894,55.2719157 56.5521807,65.4417474 C56.8811353,65.6720636 56.9023582,66.1559388 56.5925042,66.4116109 L52.587747,69.7353477 C52.367029,69.9170651 52.0486858,69.925517 51.8237233,69.7501387 Z" id="Combined-Shape" fill="#5BB8DE"></path>
                    <path d="M216.969437,63.7474972 C217.130432,63.7474972 217.235615,63.7240452 217.284986,63.6771413 C217.336505,63.6281053 217.362264,63.5193734 217.362264,63.3445495 L217.362264,62.1506303 L212.504523,62.1506303 L212.504523,63.3189655 C212.504523,63.4937894 212.530282,63.6110493 212.579653,63.6643493 C212.631172,63.7197812 212.734208,63.7474972 212.897349,63.7474972 L216.969437,63.7474972 Z M212.504523,60.0548758 L217.362264,60.0548758 L217.362264,58.5049129 L212.504523,58.5049129 L212.504523,60.0548758 Z M219.562522,58.5049129 L219.562522,63.6067853 C219.562522,64.082221 219.530323,64.4787727 219.463779,64.7964405 C219.399381,65.1162403 219.285611,65.3699481 219.126763,65.559696 C218.967916,65.7494438 218.748963,65.8858917 218.472052,65.9647757 C218.197288,66.0436596 217.85598,66.0841676 217.450274,66.0841676 L215.793104,66.0841676 C215.924046,66.3058954 215.99059,66.6001112 215.99059,66.966815 L215.99059,67.8729143 L220.564981,67.8729143 C221.015766,67.8729143 221.333462,67.9517983 221.524508,68.1095662 C221.713409,68.2694661 221.807859,68.5551539 221.807859,68.9666296 C221.807859,69.3823693 221.713409,69.6744531 221.524508,69.849277 C221.333462,70.0241009 221.015766,70.1115128 220.564981,70.1115128 L217.450274,70.1115128 C218.059907,70.8598443 218.673832,71.5250278 219.289905,72.1134594 C219.908123,72.701891 220.519903,73.2498146 221.131682,73.7572303 C221.610372,74.14099 221.889429,74.4885057 221.971,74.8061735 C222.050424,75.1259733 221.966707,75.4756211 221.719848,75.8572488 C221.47299,76.2516685 221.200373,76.4392844 220.901996,76.4158324 C220.60362,76.3923804 220.202207,76.1493326 219.695611,75.6909529 C218.980795,75.0534854 218.323938,74.3946978 217.722891,73.7103263 C217.117552,73.0280868 216.542265,72.3053393 215.99059,71.5420838 L215.99059,75.545977 C215.99059,76.0704486 215.913313,76.4435484 215.763052,76.6674082 C215.608497,76.8891361 215.314413,77 214.878655,77 C214.457923,77 214.161693,76.8891361 213.996405,76.6674082 C213.828971,76.4435484 213.745254,76.0533927 213.745254,75.499073 L213.745254,71.8981275 C213.150647,72.7893029 212.515256,73.5525584 211.839079,74.185762 C211.162902,74.8232295 210.396568,75.4756211 209.540077,76.1408046 C209.048507,76.5224323 208.632068,76.6887282 208.299346,76.6439562 C207.964477,76.5949203 207.696153,76.3646644 207.492227,75.9531887 C207.260395,75.520393 207.215316,75.1686133 207.361285,74.8914535 C207.507253,74.6121617 207.784164,74.3307379 208.18987,74.0450501 C209.003429,73.4416945 209.75903,72.8426029 210.456672,72.2435113 C211.152169,71.6486837 211.755362,70.9387282 212.264104,70.1115128 L209.411281,70.1115128 C208.988403,70.1115128 208.687879,70.0241009 208.505419,69.849277 C208.325105,69.6744531 208.234948,69.3823693 208.234948,68.9666296 C208.234948,68.5551539 208.325105,68.2694661 208.505419,68.1095662 C208.687879,67.9517983 208.988403,67.8729143 209.411281,67.8729143 L213.745254,67.8729143 L213.745254,66.966815 C213.745254,66.6001112 213.809651,66.3058954 213.94274,66.0841676 L212.48091,66.0841676 C212.030125,66.0841676 211.665205,66.0436596 211.379708,65.9647757 C211.098504,65.8858917 210.873112,65.7494438 210.705677,65.559696 C210.538243,65.3699481 210.42662,65.1162403 210.368662,64.7964405 C210.308558,64.4787727 210.282798,64.082221 210.282798,63.6067853 L210.282798,58.5049129 L209.213795,58.5049129 C208.805942,58.5049129 208.509712,58.4324249 208.320812,58.289581 C208.131912,58.1467371 208.037462,57.8439933 208.037462,57.3856136 C208.037462,56.9698739 208.125472,56.6841861 208.299346,56.5264182 C208.47322,56.3665184 208.778036,56.2876344 209.213795,56.2876344 L210.282798,56.2876344 L210.282798,55.430571 C210.282798,54.9380793 210.364369,54.5948276 210.531803,54.4050797 C210.699238,54.2131999 210.993321,54.1172599 211.414053,54.1172599 C211.834785,54.1172599 212.122429,54.2217278 212.274837,54.4285317 C212.427245,54.6353356 212.504523,54.9700593 212.504523,55.430571 L212.504523,56.2876344 L217.362264,56.2876344 L217.362264,55.407119 C217.362264,54.9124954 217.441688,54.5713756 217.602682,54.3794957 C217.76153,54.1918799 218.05132,54.0959399 218.472052,54.0959399 C218.879905,54.0959399 219.163256,54.1918799 219.32425,54.3794957 C219.483098,54.5713756 219.562522,54.9124954 219.562522,55.407119 L219.562522,56.2876344 L220.8054,56.2876344 C221.269064,56.2876344 221.58032,56.3665184 221.743461,56.5264182 C221.902309,56.6841861 221.981733,56.9698739 221.981733,57.3856136 C221.981733,57.8290693 221.889429,58.1275491 221.709115,58.278921 C221.526655,58.4302929 221.223985,58.5049129 220.8054,58.5049129 L219.562522,58.5049129 Z M204.551394,67.4422506 C204.639404,67.5360586 204.725268,67.6319985 204.813278,67.7279385 C204.899142,67.8238784 204.993592,67.9198183 205.096629,68.0136263 C205.676209,66.0607156 206.011077,63.8690211 206.099088,61.4364108 C206.111967,61.118743 206.088355,60.9119392 206.02181,60.8159993 C205.955266,60.7200593 205.785685,60.6752874 205.508775,60.6752874 L205.05155,60.6752874 C204.907728,61.7690026 204.763907,62.7880979 204.626525,63.7240452 C204.489143,64.6621246 204.341028,65.6407119 204.180033,66.6555432 C204.149981,66.8303671 204.16286,66.962551 204.214379,67.0499629 C204.26375,67.1373749 204.37752,67.2674268 204.551394,67.4422506 Z M208.320812,60.4578235 C208.305786,62.1591583 208.181283,63.7986652 207.949451,65.3806081 C207.717619,66.962551 207.361285,68.4762699 206.882594,69.9217649 L208.058928,71.20736 C208.335838,71.5122358 208.509712,71.8597516 208.582696,72.2563033 C208.653534,72.654987 208.559084,73.0131628 208.299346,73.3286986 C207.717619,74.0109381 207.019976,73.9022062 206.206417,72.9961068 C206.133433,72.9172228 206.069035,72.8426029 206.011077,72.7679829 C205.953119,72.697627 205.886575,72.631535 205.815737,72.5675751 C205.478722,73.2178346 205.120241,73.8403782 204.736001,74.4394698 C204.351761,75.0342974 203.926735,75.607805 203.460924,76.1663886 C203.012286,76.5949203 202.647365,76.8337041 202.372601,76.8806081 C202.095691,76.929644 201.805901,76.7931961 201.501085,76.4755284 C201.153336,76.1109566 200.985902,75.7293289 201.000928,75.3327772 C201.013808,74.9340934 201.254226,74.5290137 201.720037,74.115406 C202.198727,73.5760104 202.632339,73.0195588 203.025166,72.4481832 C203.420139,71.8768076 203.767887,71.262792 204.070557,70.6125324 C203.795793,70.3097887 203.512443,70.0155729 203.222652,69.7320171 C202.930716,69.4441973 202.617313,69.1329255 202.284591,68.8003337 C202.125743,68.6425658 202.001241,68.4720059 201.91323,68.2886541 C201.827367,68.1053022 201.769409,67.8857063 201.739356,67.6319985 C201.711451,67.3782907 201.715744,67.0798109 201.750089,66.7386911 C201.788728,66.3975714 201.857419,65.9967557 201.958309,65.536244 C202.132183,64.7260845 202.280298,63.9265851 202.4048,63.1398776 C202.527156,62.3553022 202.647365,61.5323508 202.765428,60.6752874 L202.52501,60.6752874 C202.016267,60.6752874 201.634173,60.5878754 201.380875,60.4130515 C201.125431,60.2382277 201.000928,59.8949759 201.000928,59.3854283 C201.000928,58.8780126 201.125431,58.5283648 201.380875,58.338617 C201.634173,58.1467371 202.016267,58.0507972 202.52501,58.0507972 L203.068098,58.0507972 C203.09815,57.6862254 203.132496,57.3088617 203.166841,56.918706 C203.203333,56.5306822 203.237679,56.1298665 203.265584,55.7141268 C203.323542,55.0958472 203.430872,54.6545235 203.594013,54.3922877 C203.752861,54.1300519 204.085583,54 204.594326,54 C205.407885,54 205.749193,54.6033556 205.618251,55.8100667 C205.575319,56.2258065 205.532387,56.6138302 205.487309,56.9784019 C205.444377,57.3451057 205.399298,57.7011494 205.358513,58.0507972 L206.446836,58.0507972 C206.723746,58.0507972 206.972751,58.0806452 207.198144,58.1339451 C207.423536,58.1915091 207.621022,58.304505 207.78631,58.4793289 C207.953744,58.6541528 208.08254,58.9035966 208.179137,59.2191324 C208.273587,59.5368001 208.320812,59.9504079 208.320812,60.4578235 Z" id="Fill-24" fill="#5BB8DE"></path>
                    <path d="M164.231923,61.0369222 C164.303677,60.9255553 164.339553,60.8478087 164.339553,60.8015809 C164.339553,60.753252 164.280462,60.7301381 164.16861,60.7301381 L159.09097,60.7301381 C159.063534,60.761657 159.038209,60.7994797 159.014995,60.8352011 C158.996001,60.8772263 158.970676,60.9108465 158.941131,60.9423654 C159.770521,61.881629 160.690659,62.6969182 161.705765,63.3861317 C162.203821,63.0415249 162.657559,62.671703 163.064867,62.2829698 C163.472176,61.890034 163.860491,61.4760857 164.231923,61.0369222 Z M166.867822,73.2284371 C166.825614,73.3229938 166.772853,73.4007404 166.717983,73.4637783 L168.087637,73.4637783 C168.273353,73.4637783 168.414751,73.3776266 168.51605,73.2053232 C168.615239,73.0330198 168.668,72.7976786 168.668,72.4992996 L168.668,58.2170302 C168.668,57.9984991 168.608908,57.8346008 168.494946,57.7253352 C168.380984,57.6139684 168.174164,57.5614369 167.874486,57.5614369 L159.306231,57.5614369 C159.420193,57.5908545 159.50672,57.6223734 159.561591,57.6538923 C159.804287,57.7631579 159.998445,57.9039424 160.141953,58.0762457 C160.28335,58.2485491 160.340331,58.4544727 160.312896,58.6877126 L165.154171,58.6877126 C165.654337,58.6877126 166.055315,58.7696618 166.363434,58.9335601 C166.669444,59.0974585 166.884705,59.3096858 167.004998,59.5681409 C167.127402,59.826596 167.159058,60.1186712 167.102077,60.4506704 C167.045096,60.7784671 166.91003,61.1062638 166.694768,61.4340604 C166.295901,62.0623374 165.869599,62.6296778 165.420082,63.1381829 C164.972676,63.646688 164.480951,64.1215729 163.953349,64.5607364 C164.366989,64.7330398 164.803843,64.8843306 165.259691,65.0188113 C165.71765,65.1511907 166.203043,65.2646588 166.717983,65.3592155 C167.386982,65.4831899 167.804843,65.6849109 167.969455,65.9580748 C168.134066,66.23334 168.174164,66.5422253 168.087637,66.8847308 C168.015884,67.2293376 167.849161,67.4667801 167.58536,67.5907545 C167.319449,67.7168301 166.922692,67.7168301 166.395091,67.5907545 C164.797512,67.2608565 163.290681,66.7292375 161.876708,65.991695 C161.418749,66.2585551 160.946018,66.4959976 160.462735,66.6977186 C161.203488,66.870022 161.910474,67.0570342 162.583694,67.2608565 C163.252694,67.4667801 163.989226,67.7462477 164.78907,68.1076646 C165.088748,68.2337402 165.289237,68.4060436 165.388426,68.6224735 C165.489726,68.8431059 165.453849,69.1393836 165.280795,69.5155093 C165.124625,69.8601161 164.907253,70.0492295 164.626569,70.0807484 C164.350106,70.1122674 164.016661,70.0492295 163.632567,69.8937362 C163.275908,69.7508505 162.944574,69.6268761 162.636455,69.5155093 C162.330445,69.4062437 162.013884,69.3053832 161.693102,69.2129278 C161.374431,69.118371 161.038876,69.0238143 160.69699,68.9292576 C160.355104,68.8347008 159.97523,68.7254353 159.561591,68.6014609 C159.190159,68.5069041 158.947462,68.3346008 158.8335,68.0845507 C158.719538,67.8323994 158.755415,67.5655393 158.941131,67.2860716 C158.569699,67.410046 158.185605,67.5277166 157.784627,67.6390835 C157.38576,67.7462477 156.976341,67.8492095 156.562701,67.941665 C156.064645,68.0530318 155.680551,68.0404243 155.41675,67.9080448 C155.152949,67.7756654 154.992558,67.4877927 154.935577,67.0486292 C154.906031,66.6746048 154.982006,66.4014409 155.15928,66.2291375 C155.338665,66.0568341 155.642564,65.9139484 156.070976,65.8067841 C156.756859,65.6344807 157.392092,65.4453672 157.976674,65.2415449 C158.561257,65.0377226 159.112074,64.8191915 159.627013,64.581749 C158.839831,63.9576746 158.16239,63.2747649 157.59258,62.5393236 C157.493391,62.6506904 157.396312,62.7536522 157.303454,62.856614 C157.210596,62.9595757 157.113518,63.0562337 157.014329,63.1507905 C156.685105,63.4638783 156.362213,63.6319792 156.049872,63.6550931 C155.735422,63.6803082 155.456848,63.541625 155.214151,63.2453472 C155.028435,63.0415249 154.944019,62.7830698 154.956681,62.469982 C154.971454,62.1568941 155.171943,61.8438063 155.558147,61.5286172 C156.085749,61.1062638 156.558481,60.6334801 156.980562,60.1102662 C157.402644,59.584951 157.776186,59.0155093 158.10752,58.4061437 C158.405087,57.9039424 158.692103,57.6223734 158.962235,57.5614369 L154.870154,57.5614369 C154.686549,57.5614369 154.549372,57.6055633 154.464956,57.7001201 C154.378429,57.7946768 154.336221,57.9753852 154.336221,58.2422453 L154.336221,72.4992996 C154.336221,73.1422854 154.585249,73.4637783 155.085416,73.4637783 L164.938909,73.4637783 C163.725425,73.0414249 162.516161,72.6842105 161.306898,72.3942365 C160.101855,72.1063638 158.806065,71.8268961 157.419527,71.560036 C157.005887,71.4822894 156.731534,71.3288973 156.596468,71.1019612 C156.459291,70.8771263 156.421304,70.5829498 156.478285,70.2215329 C156.562701,69.8159896 156.704099,69.553332 156.894035,69.4335601 C157.088193,69.3158895 157.347773,69.2906744 157.679107,69.351611 C158.533822,69.5239143 159.333667,69.6857114 160.07653,69.8349009 C160.819394,69.9840905 161.52638,70.1395838 162.19749,70.3034821 C162.868599,70.4673804 163.524936,70.6396838 164.16861,70.8203922 C164.810174,71.0011007 165.453849,71.2007204 166.095413,71.4192516 C166.65256,71.5915549 166.971232,71.8353012 167.049317,72.148389 C167.127402,72.4614769 167.0662,72.8207925 166.867822,73.2284371 Z M171,73.4385631 C171,74.331599 170.837499,74.9829898 170.508275,75.3885331 C170.179051,75.7961777 169.586027,76 168.731312,76 L154.207486,76 C153.350661,76 152.768188,75.7961777 152.462179,75.3885331 C152.15406,74.9829898 152,74.331599 152,73.4385631 L152,57.5131079 C152,56.620072 152.143508,55.9791875 152.428413,55.5862518 C152.715428,55.1954173 153.285238,55 154.144174,55 L168.731312,55 C169.586027,55 170.179051,55.1954173 170.508275,55.5862518 C170.837499,55.9791875 171,56.620072 171,57.5131079 L171,73.4385631 Z" id="Fill-20" fill="#5BB8DE"></path>
                    <path d="M112.868163,66.624365 C112.868163,66.2331906 112.81136,65.9884451 112.697756,65.8859448 C112.582048,65.7876282 112.363254,65.7353322 112.035063,65.7353322 L106.653576,65.7353322 C106.327489,65.7353322 106.117111,65.804363 106.024544,65.9466082 C105.931978,66.0846698 105.885694,66.3189561 105.885694,66.6473752 L105.885694,68.5404921 C105.885694,68.8689112 105.946704,69.0906465 106.068724,69.2077896 C106.186536,69.3249328 106.369565,69.3814125 106.611501,69.3814125 L111.948808,69.3814125 C112.333801,69.3814125 112.582048,69.308198 112.697756,69.1617691 C112.81136,69.0132483 112.868163,68.7601355 112.868163,68.4024305 L112.868163,66.624365 Z M115.386396,69.4755454 C115.386396,70.3813129 115.226508,71.0214165 114.908836,71.3937643 C114.586957,71.768204 114.006311,71.9564698 113.1669,71.9564698 L105.544881,71.9564698 C104.732819,71.9564698 104.162693,71.7640203 103.834502,71.3812133 C103.508415,71.0004981 103.34432,70.3645781 103.34432,69.4755454 L103.34432,65.6411993 C103.34432,64.7521666 103.508415,64.1141548 103.834502,63.7229804 C104.162693,63.3338978 104.732819,63.1393565 105.544881,63.1393565 L113.1669,63.1393565 C114.006311,63.1393565 114.586957,63.3338978 114.908836,63.7229804 C115.226508,64.1141548 115.386396,64.7521666 115.386396,65.6411993 L115.386396,69.4755454 Z M120,72.3999402 C120,73.4751469 119.764376,74.3014244 119.295231,74.8787728 C118.826087,75.4561211 118.014025,75.8159179 116.86115,75.9539795 C116.50561,75.9874489 116.162693,76 115.836606,76 C115.508415,76 115.171809,75.9895408 114.822581,75.9665305 C114.473352,75.9435203 114.107293,75.8974998 113.7223,75.8242853 C113.339411,75.7552545 112.924965,75.6653053 112.48317,75.5586214 C111.885694,75.4163761 111.498597,75.1904572 111.319776,74.8787728 C111.143058,74.5670884 111.09467,74.1926487 111.180926,73.7554537 C111.265077,73.3517283 111.443899,73.0463194 111.715288,72.8455025 C111.984572,72.640502 112.432679,72.6174918 113.059607,72.7722881 C113.587658,72.8977986 114.067321,72.9919315 114.500701,73.0546867 C114.934081,73.117442 115.401122,73.1550951 115.899719,73.1718299 C116.242637,73.1885646 116.511921,73.1760135 116.711781,73.1362686 C116.911641,73.0986154 117.063114,73.0274928 117.170407,72.9270844 C117.2777,72.8245841 117.349229,72.6823389 117.382889,72.4940731 C117.418654,72.3058074 117.437588,72.0715211 117.437588,71.7933061 L117.437588,58.5561311 C117.437588,58.1670485 117.378682,57.9160275 117.256662,57.8072517 C117.134642,57.6984759 116.926367,57.6440881 116.625526,57.6440881 L104.177419,57.6440881 C103.720898,57.6440881 103.375877,57.5248531 103.142356,57.2926586 C102.906732,57.0604642 102.78892,56.7383205 102.78892,56.3345951 C102.78892,55.9141349 102.896213,55.5857157 103.108696,55.3514294 C103.323282,55.1171431 103.678822,55 104.177419,55 L117.393408,55 C117.921459,55 118.350631,55.052296 118.687237,55.1547963 C119.021739,55.2531129 119.284712,55.4141847 119.478261,55.6317362 C119.667602,55.8513796 119.804348,56.1463293 119.882188,56.520769 C119.960028,56.8952087 120,57.3470465 120,57.8762825 L120,72.3999402 Z M116.499299,60.2379719 C116.499299,60.7065445 116.368864,61.0182289 116.114306,61.175117 C115.857644,61.3320052 115.523142,61.4094033 115.108696,61.4094033 L103.386396,61.4094033 C102.974053,61.4094033 102.639551,61.3424644 102.384993,61.2106784 C102.128331,61.0788923 102,60.7776671 102,60.3090945 C102,59.8572567 102.117812,59.5539396 102.351332,59.3970515 C102.584853,59.2422552 102.929874,59.1648571 103.386396,59.1648571 L115.108696,59.1648571 C115.565217,59.1648571 115.910238,59.2297042 116.145863,59.3614902 C116.381487,59.4953681 116.499299,59.7861341 116.499299,60.2379719 Z" id="Fill-16" fill="#5BB8DE"></path>
                    <path d="M143.362591,63.5961512 C143.86536,63.5961512 144.289305,63.6422077 144.628036,63.7343207 C144.966766,63.8285271 145.237324,63.9897248 145.43971,64.2158203 C145.639966,64.4419158 145.784832,64.7538438 145.872177,65.1516043 C145.957392,65.5514584 146,66.0538927 146,66.661001 C146,67.7077392 145.976566,68.6184016 145.925437,69.3992683 C145.874308,70.1801351 145.799744,70.8667954 145.699617,71.4592493 C145.597358,72.0517032 145.469536,72.5625114 145.320409,72.9916741 C145.169152,73.4208368 144.998722,73.80813 144.811248,74.1514602 C144.466127,74.7271662 143.91862,75.1793572 143.166596,75.508033 C142.418833,75.8367088 141.566681,76 140.616532,76 C139.996591,76 139.355347,75.956037 138.692799,75.8702045 C138.028121,75.7843719 137.371964,75.5708373 136.724329,75.2275071 C136.191734,74.9134857 135.853004,74.612025 135.708138,74.3147513 C135.563272,74.0195711 135.620793,73.6197171 135.880699,73.1214697 C136.068172,72.7299896 136.315296,72.4976137 136.626331,72.4180616 C136.935236,72.3406029 137.359182,72.4180616 137.891777,72.6525309 C138.439284,72.8849068 138.92288,73.0398241 139.340435,73.1089088 C139.760119,73.180087 140.184065,73.2156761 140.616532,73.2156761 C141.119301,73.2156761 141.56029,73.1444979 141.935236,73.004235 C142.310183,72.8639721 142.576481,72.6671853 142.736259,72.4180616 L142.712825,72.4180616 C142.815083,72.2631443 142.90882,72.0475162 142.994035,71.7753643 C143.08138,71.5011188 143.155944,71.1515082 143.221986,70.7223455 C143.288027,70.2931828 143.337026,69.7572528 143.373242,69.1187425 C143.407329,68.4802321 143.435023,67.7077392 143.449936,66.8012639 C143.449936,66.7070574 143.426502,66.6254118 143.383894,66.5563271 C143.341287,66.4851489 143.294418,66.4349055 143.243289,66.4035033 C143.19216,66.3721012 143.145292,66.3490729 143.102684,66.3344186 C143.057946,66.3197643 143.047294,66.3113904 143.057946,66.3113904 L131.513421,66.3113904 C130.936089,66.3113904 130.463144,66.2632404 130.096719,66.169034 C129.730294,66.076921 129.444823,65.9199102 129.242437,65.7021887 C129.040051,65.4823736 128.914359,65.1913804 128.86323,64.825022 C128.814231,64.4565701 128.818492,64.0001922 128.873882,63.4558883 L128.873882,63.4768231 C128.91862,63.0267256 128.952706,62.6478063 128.982531,62.3421588 C129.012356,62.0386047 129.044312,61.7538918 129.080528,61.4880203 C129.116745,61.2242423 129.1487,60.937436 129.178526,60.6359753 C129.206221,60.3303278 129.242437,59.953502 129.287175,59.4992176 C129.329783,59.0009701 129.459736,58.6492661 129.674904,58.4461988 C129.892203,58.2431316 130.173413,58.1426447 130.518534,58.1426447 C131.053259,58.1426447 131.413294,58.2598794 131.600767,58.4922553 C131.78611,58.7288182 131.867064,59.1161113 131.837239,59.6625087 L131.492118,63.1502407 C131.492118,63.3700558 131.530464,63.4977578 131.609288,63.5375339 C131.690243,63.5752165 131.886238,63.5961512 132.205795,63.5961512 L140.162761,63.5961512 L140.571794,58.3289641 C140.571794,57.9395775 140.43545,57.7448842 140.162761,57.7448842 L128.746059,57.7448842 C128.253941,57.7448842 127.915211,57.629743 127.727738,57.405741 C127.540264,57.1796455 127.446527,56.8321284 127.446527,56.3631896 C127.446527,55.9424008 127.555177,55.6032576 127.772476,55.34576 C127.987644,55.0882624 128.307201,54.9752147 128.724755,55.0045233 L140.961653,55.0045233 C141.409033,55.0045233 141.78398,55.0442994 142.086493,55.1238515 C142.389007,55.2013101 142.623349,55.34576 142.789519,55.5551077 C142.955688,55.7665488 143.062207,56.0596355 143.113336,56.4343678 C143.164465,56.8091001 143.166596,57.2905998 143.126118,57.8830536 C143.066468,58.7288182 143.002556,59.6436674 142.930124,60.6359753 C142.857691,61.6261898 142.785258,62.6122172 142.712825,63.5961512 L143.362591,63.5961512 Z M142.303792,69.9603201 C142.303792,70.4920631 142.210055,70.8584215 142.022582,71.0614887 C141.832978,71.264556 141.496378,71.3650428 141.006391,71.3650428 L127.252663,71.3650428 C126.762676,71.3650428 126.432467,71.264556 126.259906,71.0614887 C126.087346,70.8584215 126,70.4920631 126,69.9603201 C126,69.4139227 126.087346,69.0475643 126.259906,68.8612448 C126.432467,68.6749254 126.762676,68.580719 127.252663,68.580719 L141.027695,68.580719 C141.487857,68.580719 141.815935,68.6749254 142.0098,68.8612448 C142.205795,69.0475643 142.303792,69.4139227 142.303792,69.9603201 Z" id="Fill-18" fill="#5BB8DE"></path>
                    <path d="M195.784643,61.7415871 C196.233983,61.7415871 196.548521,61.8100393 196.728257,61.9448045 C196.910132,62.0795696 197,62.4261087 197,62.9844216 C197,63.5106475 196.914412,63.865743 196.741095,64.0497082 C196.565638,64.2336734 196.248961,64.3235168 195.784643,64.3235168 L187.533913,64.3235168 L187.206537,65.5684904 C187.118809,65.8551337 187.10811,66.0305424 187.174441,66.0947163 C187.238633,66.156751 187.439766,66.188838 187.771421,66.188838 L193.050091,66.188838 C193.846064,66.188838 194.438764,66.3642466 194.830332,66.7150639 C195.219759,67.0658812 195.416613,67.5215159 195.416613,68.0798287 C195.416613,68.6852025 195.161987,69.2670458 194.657015,69.8232195 C194.147764,70.3366107 193.608556,70.8628366 193.037253,71.4040364 C192.46595,71.9452363 191.839014,72.5035492 191.158586,73.0768359 C191.492381,73.2522446 191.834735,73.4190967 192.189927,73.5795315 C192.545119,73.7378271 192.887473,73.9132357 193.223408,74.1057574 L193.199871,74.082227 C193.664189,74.3046965 193.957329,74.6041746 194.079293,74.9763832 C194.203396,75.3528701 194.184139,75.7229395 194.0258,76.0908698 C193.807549,76.5828697 193.548644,76.8630957 193.244805,76.9272696 C192.940966,76.9914435 192.600752,76.9272696 192.224162,76.736887 C190.891121,76.0181394 189.609434,75.3892353 188.379099,74.8458963 C187.148765,74.3046965 185.897033,73.8255314 184.621765,73.4126793 C184.129631,73.2351316 183.787277,73.0190794 183.590423,72.764523 C183.395709,72.5099666 183.385011,72.1142275 183.558328,71.5708886 C183.643916,71.3163321 183.731644,71.1173931 183.817233,70.9719322 C183.904961,70.8286105 184.020505,70.7259323 184.166006,70.6617584 C184.311506,70.5997236 184.484823,70.5783323 184.685956,70.6018628 C184.889229,70.6253932 185.150273,70.6852888 185.469091,70.7815497 C185.946246,70.9419844 186.44266,71.1173931 186.956191,71.3077756 C187.469722,71.5002973 187.993951,71.7056537 188.531019,71.9302624 C188.922586,71.6093929 189.249962,71.3355843 189.519566,71.1045583 C189.78703,70.8735323 190.026678,70.6617584 190.23637,70.4692367 C190.446061,70.2788542 190.634356,70.0991673 190.801254,69.9323151 C190.966011,69.765463 191.152166,69.5772196 191.355439,69.369724 C191.556572,69.1472545 191.633602,69.0039328 191.582249,68.9397589 C191.533035,68.875585 191.383255,68.8434981 191.137188,68.8434981 L186.250086,68.8434981 C185.411318,68.8434981 184.840015,68.5761069 184.534036,68.0434635 C184.232337,67.5086811 184.180984,66.8605248 184.384257,66.0947163 L184.861412,64.3235168 L182.841524,64.3235168 C182.377206,64.3235168 182.062669,64.2122821 181.897911,63.9898126 C181.731013,63.7652039 181.647565,63.4314997 181.647565,62.9844216 C181.647565,62.5394826 181.731013,62.2207522 181.897911,62.0282305 C182.062669,61.837848 182.377206,61.7415871 182.841524,61.7415871 L185.576076,61.7415871 L186.164497,59.3971009 L183.862167,59.3971009 C183.397849,59.3971009 183.085451,59.2944227 182.927112,59.0869271 C182.768774,58.8794315 182.689604,58.5692576 182.689604,58.1542665 C182.689604,57.7392753 182.768774,57.4141276 182.927112,57.1724059 C183.085451,56.9349625 183.397849,56.8151712 183.862167,56.8151712 L186.902698,56.8151712 L187.315662,55.4033455 C187.662296,54.273885 188.212202,53.8268069 188.96538,54.0642503 C189.34197,54.224685 189.613713,54.4471545 189.778471,54.735937 C189.945369,55.0204413 189.949648,55.4996064 189.791309,56.1712931 L189.594456,56.8151712 L194.849589,56.8151712 C195.313907,56.8151712 195.630584,56.9199886 195.795342,57.1274842 C195.96224,57.3328406 196.045688,57.6451536 196.045688,58.0580056 C196.045688,58.4751359 195.96224,58.8002837 195.795342,59.0377271 C195.630584,59.2794487 195.313907,59.3971009 194.849589,59.3971009 L188.858395,59.3971009 L188.269974,61.7415871 L195.784643,61.7415871 Z M180.691113,75.5154439 C180.691113,76.5037219 180.301686,77 179.516411,77 C179.069211,77 178.765372,76.8780696 178.607033,76.6406262 C178.446555,76.4010437 178.367386,76.0266959 178.367386,75.5154439 L178.367386,66.4048901 C178.018613,66.963203 177.693376,67.2626812 177.389537,67.3033246 C177.085698,67.341829 176.788278,67.2241768 176.499417,66.9567856 L176.544351,66.9781769 C176.165622,66.6915335 175.985886,66.3449945 176.000864,65.9385598 C176.015842,65.529986 176.210556,64.9952036 176.585005,64.3235168 C177.325346,63.0657085 177.933024,61.7266132 178.41018,60.306231 C178.889475,58.887988 179.293881,57.3563711 179.625536,55.7156585 L179.625536,55.7627194 C179.743221,55.1252587 179.89514,54.6589284 180.083435,54.3637285 C180.27173,54.0685286 180.603385,53.9530155 181.08268,54.0171894 C182.009176,54.1605111 182.298037,54.9412935 181.951404,56.3595366 C181.745991,57.2216059 181.544858,58.0237796 181.343725,58.7639185 C181.138313,59.5061965 180.922202,60.2185267 180.691113,60.9030483 L180.691113,75.5154439 Z" id="Fill-22" fill="#5BB8DE"></path>
                    <path d="M105.809949,14.7291275 C105.809949,15.0258377 105.88926,15.2807577 106.047882,15.4980665 C106.206504,15.7174649 106.402694,15.9076102 106.636453,16.0747708 C106.870211,16.2419315 107.114406,16.3840181 107.371123,16.498941 C107.62784,16.6117745 107.857424,16.7225184 108.061963,16.8249043 C108.575397,17.0819138 109.017869,17.3368338 109.395639,17.5917539 C109.769236,17.8487634 110.080218,18.126668 110.324412,18.4212887 C110.568607,18.7138198 110.746013,19.0481411 110.854544,19.4200736 C110.963074,19.7920061 111.008991,20.2140868 110.998556,20.6904947 C110.977684,21.9567367 110.624959,22.9785062 109.94038,23.7537138 C109.257889,24.5289214 108.216411,24.942644 106.815946,24.9948818 C106.304599,25.0199559 105.824559,24.9530916 105.373739,24.7901099 C104.925006,24.6313073 104.534713,24.4557886 104.202859,24.2635539 C103.908573,24.0963932 103.672728,23.9104269 103.497409,23.6972971 C103.320003,23.4841673 103.1906,23.2710374 103.11129,23.051639 C103.031979,22.8364197 102.99441,22.6232898 103.000672,22.418518 C103.006933,22.2137462 103.054937,22.040317 103.146771,21.90032 C103.305393,21.6182363 103.497409,21.4615232 103.718645,21.4280911 C103.93988,21.394659 104.146506,21.4510757 104.340609,21.5910727 C104.511754,21.7206223 104.691247,21.8564403 104.879089,22.0027059 C105.066931,22.1531505 105.265208,22.286879 105.476008,22.4080705 C105.686809,22.529262 105.910131,22.6295584 106.141803,22.7047807 C106.375562,22.7820925 106.630191,22.8217931 106.901518,22.8217931 C107.129016,22.8217931 107.354426,22.7779135 107.577749,22.6880646 C107.796897,22.5982157 107.995175,22.4686662 108.16632,22.3015056 C108.335377,22.1364344 108.471041,21.9274836 108.575397,21.6767426 C108.677666,21.4280911 108.727758,21.1418285 108.727758,20.8242232 C108.727758,20.514976 108.665144,20.2454294 108.542003,20.0155835 C108.414688,19.7836481 108.264415,19.5830553 108.089096,19.4096261 C107.91169,19.2361969 107.717586,19.0941103 107.506786,18.9770979 C107.298073,18.8621749 107.106057,18.772326 106.937,18.7075513 C106.459047,18.5153165 106.012401,18.3084552 105.594975,18.0827883 C105.179636,17.8592109 104.818562,17.5917539 104.511754,17.2866856 C104.202859,16.9795279 103.958665,16.6117745 103.777084,16.1896938 C103.595504,15.7676131 103.505757,15.2682206 103.505757,14.6894268 C103.505757,14.0772009 103.614288,13.5360183 103.837611,13.0658789 C104.058847,12.597829 104.353132,12.21127 104.71838,11.9020228 C105.079454,11.5969546 105.494793,11.3650191 105.953961,11.212485 C106.415217,11.0578614 106.884821,10.9889076 107.362774,11.0014447 C107.89708,11.0139817 108.39173,11.1100991 108.848811,11.2897968 C109.303806,11.467405 109.681576,11.6930719 109.98421,11.960529 C110.284757,12.2300756 110.489296,12.5226067 110.597826,12.8381225 C110.706357,13.1494592 110.685486,13.4482589 110.539387,13.7303425 C110.460076,13.8703396 110.359894,13.9852625 110.23884,14.0667534 C110.119874,14.1503337 109.994646,14.2088399 109.863157,14.2401825 C109.733754,14.2694357 109.604352,14.2736147 109.479125,14.2506301 C109.353897,14.2234665 109.251627,14.1712288 109.172316,14.093917 C109.059611,14.0040681 108.928122,13.9058612 108.779936,13.7972068 C108.63175,13.6885524 108.475215,13.588256 108.310332,13.4984071 C108.145448,13.4085582 107.968042,13.3312464 107.7802,13.2685612 C107.592359,13.2058759 107.40243,13.1724438 107.210414,13.1724438 C106.991265,13.1724438 106.801336,13.2205025 106.630191,13.3166199 C106.459047,13.4127373 106.312948,13.5360183 106.193981,13.6822838 C106.075015,13.8285494 105.979007,13.9957101 105.912219,14.1795868 C105.843343,14.3676426 105.809949,14.5515193 105.809949,14.7291275" id="Fill-27" fill="#FEFEFE"></path>
                    <path d="M125.972198,23.4962484 C125.995788,23.6936246 126.004366,23.8803892 125.997932,24.0629092 C125.991499,24.2454291 125.952898,24.4046035 125.884275,24.5404322 C125.813507,24.6783834 125.701995,24.7866219 125.551882,24.8715149 C125.39748,24.9564079 125.189466,24.9988544 124.919263,24.9988544 C124.54398,25.0115884 124.290932,24.9182061 124.15583,24.7165852 C124.022873,24.512842 123.924227,24.186004 123.868471,23.7297042 L123.025693,16.6835858 C122.978515,16.3822157 122.907747,16.233653 122.813391,16.233653 C122.719034,16.233653 122.631111,16.3822157 122.549621,16.6835858 L120.585284,24.179637 C120.527383,24.4258267 120.430882,24.6253252 120.297925,24.7760103 C120.162823,24.924573 119.907631,24.9988544 119.534492,24.9988544 C119.335057,24.9988544 119.172077,24.9818758 119.043408,24.9521633 C118.91474,24.9182061 118.809661,24.8672703 118.728171,24.7951112 C118.644536,24.7229522 118.584491,24.6380592 118.543746,24.5404322 C118.503001,24.4428053 118.464401,24.3239551 118.427945,24.179637 C118.089118,22.9189761 117.75458,21.6710491 117.422187,20.442223 C117.085505,19.2112747 116.757401,17.96547 116.429296,16.7026867 C116.347807,16.3885827 116.264172,16.233653 116.176249,16.233653 C116.088325,16.233653 116.019702,16.3885827 115.974668,16.7026867 L115.149047,23.6150986 C115.091146,24.0820101 114.977489,24.4300714 114.808075,24.6592824 C114.638662,24.8863712 114.329858,24.9988544 113.885952,24.9988544 C113.523536,24.9988544 113.272633,24.8863712 113.133242,24.6592824 C112.991707,24.4300714 112.963829,24.0438082 113.045319,23.4962484 L114.552883,12.4262023 C114.610784,11.9699024 114.765186,11.6175965 115.018234,11.3714068 C115.269137,11.1252172 115.580085,11 115.955368,11 C116.330651,11 116.645888,11.1039939 116.903225,11.3141041 C117.160562,11.5220919 117.37072,11.9380676 117.5337,12.5641534 L119.534492,20.7244922 L121.481673,12.5238292 C121.633931,11.9125997 121.8398,11.5072356 122.10357,11.3034924 C122.36734,11.1018716 122.674,11 123.025693,11 C123.362376,11 123.67118,11.1294618 123.945672,11.3820185 C124.220165,11.6345751 124.393867,12.0038596 124.46249,12.4856274 L125.972198,23.4962484 Z" id="Fill-29" fill="#FEFEFE"></path>
                    <path d="M134.376697,19.5147227 L132.993267,14.6716027 L131.609837,19.5147227 L134.376697,19.5147227 Z M131.161869,21.7198066 L130.371337,23.9652146 C130.263737,24.2771947 130.114415,24.5276277 129.92337,24.7165136 C129.732324,24.9053995 129.449051,24.9987813 129.07794,24.9987813 C128.706829,24.9987813 128.41038,24.888421 128.190788,24.6677004 C127.966804,24.4469798 127.940453,24.0692079 128.109539,23.5365072 L131.809666,11.8001123 C131.86676,11.5942478 131.996319,11.4074842 132.196148,11.2461884 C132.393781,11.0827702 132.659487,11 132.993267,11 C133.329243,11 133.597145,11.0827702 133.792582,11.2461884 C133.990215,11.4074842 134.119775,11.5942478 134.179064,11.8001123 L137.914326,23.5725865 C138.059257,24.0692079 138.01973,24.4300013 137.800138,24.6592112 C137.576154,24.8862987 137.279705,24.9987813 136.908594,24.9987813 C136.537484,25.0115152 136.262994,24.9245004 136.082928,24.7356144 C135.902863,24.5467285 135.766715,24.3238856 135.670095,24.062841 L134.807098,21.7198066 L131.161869,21.7198066 Z" id="Fill-31" fill="#FEFEFE"></path>
                    <path d="M141.305096,16.7625492 L143.169575,16.7625492 C143.820732,16.7625492 144.315611,16.6441997 144.652042,16.4161077 C144.988474,16.1837121 145.157774,15.6995547 145.157774,14.9593318 C145.157774,14.6171939 145.105682,14.3331549 144.999326,14.1115184 C144.8908,13.8834264 144.747545,13.7112816 144.563051,13.5843247 C144.380727,13.4595197 144.165845,13.3755991 143.924917,13.3261074 C143.681819,13.2830712 143.430038,13.2572495 143.169575,13.2572495 L141.305096,13.2572495 L141.305096,16.7625492 Z M139,12.3083009 C139,12.0307174 139.017364,11.806929 139.060775,11.6347842 C139.099844,11.4626393 139.175812,11.3335307 139.282168,11.2410028 C139.388524,11.1484749 139.54046,11.0839206 139.733637,11.0516435 C139.928984,11.0172145 140.180765,11 140.488979,11 L143.169575,11 C143.868484,11 144.487083,11.0645543 145.025372,11.1893593 C145.563662,11.3163162 146.012961,11.5293454 146.375438,11.8327508 C146.735745,12.1361561 147.00706,12.5428483 147.191555,13.0506757 C147.373879,13.558503 147.467211,14.1889836 147.467211,14.9399655 C147.467211,16.0911843 147.230624,16.9669713 146.766132,17.5737819 C146.297299,18.1805925 145.667847,18.5829812 144.875606,18.7787959 C144.756228,18.8067695 144.636849,18.834743 144.51747,18.8605647 C144.402432,18.8863865 144.276542,18.9057528 144.148481,18.9186636 L147.625659,22.7381278 C147.862246,23.0028005 147.985966,23.3062058 147.998989,23.6504955 C148.012012,23.9926334 147.899145,24.2981906 147.662558,24.5607115 C147.423801,24.8232324 147.139462,24.9695555 146.809543,24.9953773 C146.479623,25.0233508 146.212649,24.9243675 146.01079,24.6984274 L141.305096,19.1768809 L141.305096,23.9668117 C141.305096,24.2314844 141.211763,24.4703354 141.020757,24.6812129 C140.831922,24.8899385 140.532389,24.9953773 140.115649,24.9953773 C139.70325,24.9953773 139.412399,24.8834831 139.24744,24.6596948 C139.08248,24.4359065 139,24.2056627 139,23.9668117 L139,12.3083009 Z" id="Fill-33" fill="#FEFEFE"></path>
                    <path d="M155.061876,13.2967405 L155.061876,23.9689422 C155.061876,24.2337023 154.98004,24.4726322 154.816367,24.6835793 C154.652695,24.8945264 154.381238,25 154,25 C153.618762,25 153.347305,24.8880689 153.183633,24.6620541 C153.021956,24.4403444 152.94012,24.2078721 152.94012,23.9689422 L152.94012,13.2967405 L150.850299,13.2967405 C150.652695,13.2967405 150.461078,13.2106396 150.279441,13.0384379 C150.093812,12.8683887 150,12.5713407 150,12.147294 C150,11.7383149 150.087824,11.445572 150.261477,11.2690652 C150.43513,11.0904059 150.630739,11 150.850299,11 L157.151697,11 C157.367265,11 157.56487,11.0904059 157.738523,11.2690652 C157.912176,11.445572 158,11.7383149 158,12.147294 C158,12.5713407 157.908184,12.8683887 157.722555,13.0384379 C157.536926,13.2106396 157.347305,13.2967405 157.151697,13.2967405 L155.061876,13.2967405 Z" id="Fill-35" fill="#FEFEFE"></path>
                    <path d="M172.972198,23.4962484 C172.995788,23.6936246 173.004366,23.8803892 172.997932,24.0629092 C172.991499,24.2454291 172.952898,24.4046035 172.884275,24.5404322 C172.813507,24.6783834 172.701995,24.7866219 172.551882,24.8715149 C172.39748,24.9564079 172.189466,24.9988544 171.919263,24.9988544 C171.54398,25.0115884 171.290932,24.9182061 171.15583,24.7165852 C171.022873,24.512842 170.924227,24.186004 170.868471,23.7297042 L170.025693,16.6835858 C169.978515,16.3822157 169.907747,16.233653 169.813391,16.233653 C169.719034,16.233653 169.631111,16.3822157 169.549621,16.6835858 L167.585284,24.179637 C167.527383,24.4258267 167.430882,24.6253252 167.297925,24.7760103 C167.162823,24.924573 166.907631,24.9988544 166.534492,24.9988544 C166.335057,24.9988544 166.172077,24.9818758 166.043408,24.9521633 C165.91474,24.9182061 165.809661,24.8672703 165.728171,24.7951112 C165.644536,24.7229522 165.584491,24.6380592 165.543746,24.5404322 C165.503001,24.4428053 165.464401,24.3239551 165.427945,24.179637 C165.089118,22.9189761 164.75458,21.6710491 164.422187,20.442223 C164.085505,19.2112747 163.757401,17.96547 163.429296,16.7026867 C163.347807,16.3885827 163.264172,16.233653 163.176249,16.233653 C163.088325,16.233653 163.019702,16.3885827 162.974668,16.7026867 L162.149047,23.6150986 C162.091146,24.0820101 161.977489,24.4300714 161.808075,24.6592824 C161.638662,24.8863712 161.329858,24.9988544 160.885952,24.9988544 C160.523536,24.9988544 160.272633,24.8863712 160.133242,24.6592824 C159.991707,24.4300714 159.963829,24.0438082 160.045319,23.4962484 L161.552883,12.4262023 C161.610784,11.9699024 161.765186,11.6175965 162.018234,11.3714068 C162.269137,11.1252172 162.580085,11 162.955368,11 C163.330651,11 163.645888,11.1039939 163.903225,11.3141041 C164.160562,11.5220919 164.37072,11.9380676 164.5337,12.5641534 L166.534492,20.7244922 L168.481673,12.5238292 C168.633931,11.9125997 168.8398,11.5072356 169.10357,11.3034924 C169.36734,11.1018716 169.674,11 170.025693,11 C170.362376,11 170.67118,11.1294618 170.945672,11.3820185 C171.220165,11.6345751 171.393867,12.0038596 171.46249,12.4856274 L172.972198,23.4962484 Z" id="Fill-37" fill="#FEFEFE"></path>
                    <path d="M181.376697,19.5147227 L179.993267,14.6716027 L178.609837,19.5147227 L181.376697,19.5147227 Z M178.161869,21.7198066 L177.371337,23.9652146 C177.263737,24.2771947 177.114415,24.5276277 176.92337,24.7165136 C176.732324,24.9053995 176.449051,24.9987813 176.07794,24.9987813 C175.706829,24.9987813 175.41038,24.888421 175.190788,24.6677004 C174.966804,24.4469798 174.940453,24.0692079 175.109539,23.5365072 L178.809666,11.8001123 C178.86676,11.5942478 178.996319,11.4074842 179.196148,11.2461884 C179.393781,11.0827702 179.659487,11 179.993267,11 C180.329243,11 180.597145,11.0827702 180.792582,11.2461884 C180.990215,11.4074842 181.119775,11.5942478 181.179064,11.8001123 L184.914326,23.5725865 C185.059257,24.0692079 185.01973,24.4300013 184.800138,24.6592112 C184.576154,24.8862987 184.279705,24.9987813 183.908594,24.9987813 C183.537484,25.0115152 183.262994,24.9245004 183.082928,24.7356144 C182.902863,24.5467285 182.766715,24.3238856 182.670095,24.062841 L181.807098,21.7198066 L178.161869,21.7198066 Z" id="Fill-39" fill="#FEFEFE"></path>
                    <path d="M189.182939,17.75246 L190.948613,17.75246 C191.665982,17.75246 192.157246,17.5694957 192.420349,17.199262 C192.683453,16.8290283 192.817061,16.2306273 192.817061,15.3976015 C192.817061,14.9606396 192.767729,14.6054736 192.67112,14.3277983 C192.576567,14.050123 192.445015,13.8305658 192.27852,13.6669742 C192.109969,13.4990775 191.912641,13.3892989 191.688592,13.3268758 C191.464543,13.2687577 191.217883,13.2386224 190.948613,13.2386224 L189.182939,13.2386224 L189.182939,17.75246 Z M187,12.3087331 C187,12.0310578 187.016444,11.8071956 187.057554,11.6349938 C187.094553,11.4627921 187.170606,11.3336408 187.283659,11.2410824 C187.396711,11.148524 187.554985,11.0839483 187.764645,11.0516605 C187.970195,11.0172202 188.241521,11 188.578623,11 L190.948613,11 C191.688592,11 192.313464,11.0731857 192.823227,11.2195572 C193.335046,11.3637761 193.752312,11.6091636 194.077081,11.9514145 C194.40185,12.295818 194.636177,12.7478475 194.784173,13.3096556 C194.928058,13.8693112 195,14.5602706 195,15.3760763 C195,16.196187 194.921891,16.8957565 194.765673,17.4747847 C194.609455,18.0581181 194.366906,18.5338253 194.042138,18.9019065 C193.717369,19.2721402 193.300103,19.5433579 192.790339,19.7134071 C192.280576,19.8856089 191.665982,19.9717097 190.948613,19.9717097 L189.182939,19.9717097 L189.182939,23.9710947 C189.182939,24.2358549 189.100719,24.4747847 188.932169,24.6857319 C188.763618,24.8945264 188.482014,25 188.09147,25 C187.698869,25 187.419322,24.8880689 187.250771,24.6642066 C187.084275,24.4403444 187,24.2100246 187,23.9710947 L187,12.3087331 Z" id="Fill-41" fill="#FEFEFE"></path>
                    <path d="M116.972198,42.4964768 C116.995788,42.6917011 117.004366,42.8805594 116.997932,43.0609296 C116.991499,43.2455439 116.952898,43.4046941 116.884275,43.5405023 C116.813507,43.6784326 116.701995,43.7866547 116.551882,43.8715348 C116.39748,43.954293 116.189466,43.998855 115.919263,43.998855 C115.54398,44.0115871 115.290932,43.9182189 115.15583,43.7145066 C115.022873,43.5129163 114.924227,43.1840058 114.868471,42.7277751 L114.025693,35.6827245 C113.978515,35.3835221 113.907747,35.2349819 113.813391,35.2349819 C113.719034,35.2349819 113.631111,35.3835221 113.549621,35.6827245 L111.585284,43.1797618 C111.527383,43.4237922 111.430882,43.6232605 111.297925,43.7739227 C111.162823,43.9224629 110.907631,43.998855 110.534492,43.998855 C110.335057,43.998855 110.172077,43.981879 110.043408,43.952171 C109.91474,43.9182189 109.809661,43.8651688 109.728171,43.7930207 C109.644536,43.7229946 109.584491,43.6359925 109.543746,43.5405023 C109.503001,43.4407682 109.464401,43.321936 109.427945,43.1797618 C109.089118,41.9171699 108.75458,40.671554 108.422187,39.4429142 C108.085505,38.2100303 107.757401,36.9644145 107.429296,35.7039446 C107.347807,35.3877661 107.264172,35.2349819 107.176249,35.2349819 C107.088325,35.2349819 107.019702,35.3877661 106.974668,35.7039446 L106.149047,42.613187 C106.091146,43.0800277 105.977489,43.4280362 105.808075,43.6572125 C105.638662,43.8842669 105.329858,43.998855 104.885952,43.998855 C104.523536,43.998855 104.272633,43.8842669 104.133242,43.6572125 C103.991707,43.4280362 103.963829,43.0439536 104.045319,42.4964768 L105.552883,31.4259861 C105.610784,30.9697555 105.765186,30.6196249 106.018234,30.3734726 C106.269137,30.1251982 106.580085,30 106.955368,30 C107.330651,30 107.645888,30.1061002 107.903225,30.3161785 C108.160562,30.5220128 108.37072,30.9400474 108.5337,31.5639163 L110.534492,39.7230186 L112.481673,31.5257203 C112.633931,30.9124614 112.8398,30.5071588 113.10357,30.3034465 C113.36734,30.1039782 113.674,30 114.025693,30 C114.362376,30 114.67118,30.1294422 114.945672,30.3819606 C115.220165,30.636601 115.393867,31.0037075 115.46249,31.4854022 L116.972198,42.4964768 Z" id="Fill-43" fill="#FEFEFE"></path>
                    <path d="M121.350207,41.7529247 L125.729737,41.7529247 C126.190041,41.7529247 126.515353,41.8337233 126.710097,41.990953 C126.902628,42.1547341 127,42.4473561 127,42.8775542 C127,43.3055686 126.902628,43.6003744 126.710097,43.7619716 C126.515353,43.9213851 126.190041,44 125.729737,44 L120.1574,44 C119.794467,44 119.511203,43.9235689 119.305394,43.7707066 C119.099585,43.6178443 119,43.327406 119,42.8950242 L119,31.1049758 C119,30.690064 119.092946,30.4039931 119.28769,30.2423959 C119.480221,30.0786149 119.770124,30 120.1574,30 L125.749654,30 C126.099308,30 126.362656,30.0829824 126.537483,30.2489471 C126.71231,30.4192794 126.805256,30.7097177 126.818534,31.1246295 C126.829599,31.5395414 126.741079,31.8321635 126.546335,31.9981282 C126.353804,32.1662767 126.081604,32.2492591 125.729737,32.2492591 L121.350207,32.2492591 L121.350207,35.6449852 L125.550484,35.6449852 C125.935546,35.6449852 126.214385,35.7345188 126.382573,35.9157698 C126.552974,36.0970207 126.637068,36.3874591 126.637068,36.7914522 C126.637068,37.1932616 126.552974,37.4771487 126.382573,37.6431134 C126.214385,37.8112619 125.935546,37.8942443 125.550484,37.8942443 L121.350207,37.8942443 L121.350207,41.7529247 Z" id="Fill-45" fill="#FEFEFE"></path>
                    <path d="M131.172273,41.9123382 L133.080682,41.9123382 C134.909318,41.9123382 135.823636,40.2439557 135.823636,36.9115583 C135.823636,36.1472469 135.774545,35.4637342 135.674318,34.8610201 C135.572045,34.258306 135.400227,33.7538606 135.154773,33.3454999 C134.909318,32.9371393 134.586136,32.6248635 134.185227,32.4108563 C133.782273,32.1968492 133.275,32.0876618 132.663409,32.0876618 L131.172273,32.0876618 L131.172273,41.9123382 Z M132.996818,30 C133.866136,30 134.616818,30.1768835 135.246818,30.5306504 C135.876818,30.8866012 136.396364,31.3757604 136.803409,31.9981282 C137.210455,32.620496 137.511136,33.3586024 137.705455,34.2080799 C137.901818,35.0597411 138,35.9790984 138,36.9705194 C138,38.0296366 137.897727,38.9883014 137.697273,39.8552488 C137.496818,40.715645 137.19,41.4581189 136.776818,42.0717517 C136.365682,42.689752 135.852273,43.163625 135.238636,43.499922 C134.625,43.8340353 133.905,44 133.080682,44 L129.902045,44 C129.511364,44 129.261818,43.9235689 129.1575,43.7707066 C129.051136,43.6156606 129,43.3929184 129,43.0981126 L129,30.9040711 C129,30.6070816 129.049091,30.3865232 129.149318,30.2292934 C129.249545,30.0764311 129.501136,30 129.902045,30 L132.996818,30 Z" id="Fill-47" fill="#FEFEFE"></path>
                    <path d="M143,42.7500379 C143,43.1659845 142.920904,43.4800667 142.762712,43.6859178 C142.602637,43.8938912 142.34275,44 141.984934,44 C141.625235,44 141.370998,43.8938912 141.222222,43.6859178 C141.073446,43.4800667 141,43.1723511 141,42.7712597 L141,31.2520843 C141,30.4180688 141.3258,30 141.984934,30 C142.312618,30 142.564972,30.0912536 142.73823,30.2737608 C142.913371,30.456268 143,30.7745945 143,31.2308625 L143,42.7500379 Z" id="Fill-49" fill="#FEFEFE"></path>
                    <path d="M151.376697,38.5134466 L149.993267,33.6731745 L148.609837,38.5134466 L151.376697,38.5134466 Z M148.161869,40.7182001 L147.371337,42.9653935 C147.263737,43.2752048 147.114415,43.5277223 146.92337,43.7144579 C146.732324,43.9054375 146.449051,43.9988053 146.07794,43.9988053 C145.706829,43.9988053 145.41038,43.8884616 145.190788,43.667774 C144.966804,43.4449645 144.940453,43.0672492 145.109539,42.5346283 L148.809666,30.8021144 C148.86676,30.5941588 148.996319,30.4095452 149.196148,30.2461515 C149.393781,30.0827578 149.659487,30 149.993267,30 C150.329243,30 150.597145,30.0827578 150.792582,30.2461515 C150.990215,30.4095452 151.119775,30.5941588 151.179064,30.8021144 L154.914326,42.5728243 C155.059257,43.0672492 155.01973,43.4279885 154.800138,43.657164 C154.576154,43.8842176 154.279705,43.9988053 153.908594,43.9988053 C153.537484,44.0115373 153.262994,43.9224135 153.082928,43.7356779 C152.902863,43.5468203 152.766715,43.3218887 152.670095,43.0608833 L151.807098,40.7182001 L148.161869,40.7182001 Z" id="Fill-51" fill="#FEFEFE"></path>
                </g>
            </g>
        </g>
    </g>
</svg>