<?xml version="1.0" encoding="UTF-8"?>
<svg width="116px" height="100px" viewBox="0 0 116 100" version="1.1" xmlns="http://www.w3.org/2000/svg" xmlns:xlink="http://www.w3.org/1999/xlink">
    <!-- Generator: Sketch 49.2 (51160) - http://www.bohemiancoding.com/sketch -->
    <title>15</title>
    <desc>Created with Sketch.</desc>
    <defs>
        <polygon id="path-1" points="0 0.428032 115.856526 0.428032 115.856526 76 0 76"></polygon>
    </defs>
    <g id="Page-1" stroke="none" stroke-width="1" fill="none" fill-rule="evenodd">
        <g id="Apple-TV-Copy" transform="translate(-135.000000, -3770.000000)">
            <g id="Page-1" transform="translate(135.000000, 3770.000000)">
                <g id="Group-32">
                    <g id="Group-3" transform="translate(0.000000, 24.000000)">
                        <mask id="mask-2" fill="white">
                            <use xlink:href="#path-1"></use>
                        </mask>
                        <g id="Clip-2"></g>
                        <path d="M90.6805579,71.463712 L98.5288737,66.730432 C99.1851895,66.344352 99.5911895,65.651232 99.6064526,64.894272 L99.6064526,55.388192 L108.230137,55.388192 L101.630347,61.957632 C100.778663,62.811872 100.778663,64.192032 101.630347,65.046272 L108.230137,71.615712 L90.6805579,71.463712 Z M84.9416105,69.776512 L84.9416105,67.061792 L89.4717158,67.061792 L84.9416105,69.776512 Z M20.4425579,62.678112 L95.2106632,62.678112 L95.2106632,46.626912 L20.4425579,46.626912 L20.4425579,62.678112 Z M30.7116105,69.776512 L26.1815053,67.083072 L30.7116105,67.083072 L30.7116105,69.776512 Z M7.42308421,71.439392 L14.0198211,64.869952 C14.8745579,64.015712 14.8745579,62.638592 14.0198211,61.781312 L7.42308421,55.211872 L16.0437158,55.211872 L16.0437158,64.693632 C16.0589789,65.450592 16.4649789,66.149792 17.1212947,66.535872 L24.9726632,71.266112 L7.42308421,71.439392 Z M37.4640316,34.868192 L37.9463474,34.868192 C36.3070842,37.072192 35.1257158,39.583232 34.4724526,42.249312 L25.9830842,42.249312 C27.9947684,37.762272 32.4638211,34.874272 37.3968737,34.868192 L37.4640316,34.868192 Z M39.9030842,15.287552 C40.8280316,15.287552 41.7468737,15.460832 42.6077158,15.795232 C42.6657158,19.637792 44.1737158,23.319232 46.8295053,26.109952 C45.2268737,29.520832 41.3530842,31.247552 37.7296105,30.168352 C34.1030842,29.089152 31.8227684,25.526272 32.3661368,21.796192 C32.9125579,18.066112 36.1178211,15.296672 39.9030842,15.287552 Z M53.0965579,42.249312 L38.9567684,42.249312 C40.1137158,38.637792 42.4917158,35.543072 45.6878211,33.491072 L53.0965579,42.249312 Z M57.8250842,4.799552 C62.2819263,4.756992 66.3266632,7.395712 68.0636105,11.484512 C69.8005579,15.570272 68.8847684,20.300512 65.7497158,23.452992 C62.6146632,26.608512 57.8739263,27.566112 53.7528737,25.875872 C49.6318211,24.188672 46.9394,20.188032 46.9394,15.749632 C46.9394,9.745632 51.7961368,4.860352 57.8250842,4.799552 Z M57.8250842,40.999872 L49.8455053,31.584992 C51.4267684,31.110752 53.0721368,30.867552 54.7266632,30.861472 L60.9723474,30.861472 C62.5475053,30.855392 64.1196105,31.074272 65.6306632,31.518112 L57.8250842,40.999872 Z M69.8768737,33.311712 C73.1706632,35.366752 75.6249789,38.516192 76.8032947,42.203712 L62.4650842,42.203712 L69.8768737,33.311712 Z M73.2195053,15.795232 C74.0834,15.460832 74.9991895,15.287552 75.9241368,15.287552 C79.6849789,15.384832 82.8139263,18.193792 83.2992947,21.908672 C83.7846632,25.623552 81.4768737,29.134752 77.8656105,30.183552 C74.2543474,31.232352 70.4171895,29.499552 68.8206632,26.109952 C71.5405579,23.346592 73.1126632,19.662112 73.2195053,15.795232 Z M89.6670842,42.249312 L81.2448737,42.249312 C80.5885579,39.580192 79.4071895,37.063072 77.7709789,34.846912 L78.2563474,34.846912 C83.1924526,34.856032 87.6645579,37.753152 89.6670842,42.249312 Z M106.380242,63.404672 L115.177926,54.643392 C115.797611,54.017152 115.977716,53.077792 115.635821,52.269152 C115.293926,51.454432 114.500242,50.925472 113.614979,50.919392 L99.6064526,50.919392 L99.6064526,44.349952 C99.6064526,43.143072 98.6235053,42.161152 97.4085579,42.161152 L94.3956105,42.161152 C92.8021368,37.257632 89.0565579,33.342112 84.2150842,31.518112 C88.2201368,27.718112 89.1023474,21.683712 86.3488737,16.907872 C83.5954,12.125952 77.9175053,9.839872 72.6028737,11.368992 C70.6980316,4.884672 64.7240316,0.428032 57.9349789,0.428032 C51.1489789,0.428032 45.1749789,4.884672 43.2670842,11.368992 C39.6314,10.326272 35.7118211,11.040672 32.6866632,13.305472 C29.6615053,15.570272 27.8787684,19.117952 27.8757158,22.887552 C27.8696105,26.158592 29.2249789,29.280672 31.6121368,31.518112 C26.7096105,33.332992 22.9182421,37.288032 21.3217158,42.249312 L18.2446632,42.249312 C17.6616105,42.249312 17.0999263,42.480352 16.6878211,42.890752 C16.2757158,43.301152 16.0437158,43.857472 16.0437158,44.438112 L16.0437158,51.007552 L2.12371579,51.007552 C1.25676842,51.044032 0.490557895,51.588192 0.173084211,52.393792 C-0.144389474,53.196352 0.0418210526,54.114432 0.649294737,54.731552 L9.44697895,63.492832 L0.649294737,72.251072 C0.0174,72.877312 -0.174915789,73.822752 0.166978947,74.646592 C0.511926316,75.467392 1.32087368,75.999392 2.21224211,75.996352 L32.9980316,75.996352 C33.5810842,75.996352 34.1427684,75.765312 34.5548737,75.354912 C34.9669789,74.944512 35.1959263,74.388192 35.1959263,73.807552 L35.1959263,67.235072 L80.5427684,67.235072 L80.5427684,73.807552 C80.5427684,75.014432 81.5257158,75.996352 82.7406632,75.996352 L113.526453,75.996352 C114.491084,76.054112 115.3794,75.476512 115.718242,74.576672 C116.057084,73.679872 115.764032,72.664512 115.000874,72.074752 L106.380242,63.404672 Z" id="Fill-1" fill="#5EB4D9" mask="url(#mask-2)"></path>
                    </g>
                    <path d="M87.0452446,25.0146161 L90.8876314,22.8146237 C91.9453671,22.2104649 92.3123367,20.8770436 91.711,19.827394 C91.4180412,19.3178257 90.9308043,18.9455662 90.3603055,18.7930008 C89.7898066,18.6404355 89.1792187,18.7197695 88.6673116,19.0126949 L84.8249248,21.2096361 C84.1002371,21.5849469 83.643838,22.3203119 83.6315029,23.1289083 C83.6222515,23.9344534 84.060148,24.685075 84.7725006,25.0786936 C85.4848532,25.4692609 86.3575622,25.4479018 87.0452446,25.0146161 Z M72.5854117,12.9222858 C73.6338961,13.4928803 74.9506691,13.1297747 75.561257,12.1106381 L77.7815769,8.26599111 C78.3335731,7.21939275 77.9573522,5.93174113 76.9242867,5.34283885 C75.894305,4.75088526 74.577532,5.07127251 73.9391901,6.06599864 L71.7157864,9.86792737 C71.4104925,10.3835983 71.3272305,11.0030136 71.4906707,11.5797107 C71.6541109,12.1564077 72.0488344,12.6415656 72.5854117,12.9222858 Z M23.1123686,22.8146237 L26.9547554,25.0146161 C27.4635787,25.3105929 28.0710829,25.3899269 28.6415817,25.2434642 C29.2120805,25.0939501 29.6993174,24.7277933 29.9984438,24.2212763 C30.2944865,23.7147593 30.3746647,23.1136518 30.2204758,22.5461086 C30.0662869,21.9816168 29.6900661,21.5025616 29.1750752,21.2096361 L25.3326884,19.0126949 C24.8207813,18.7197695 24.2132771,18.6404355 23.6396945,18.7930008 C23.0691957,18.9455662 22.5819588,19.3178257 22.289,19.827394 C21.6876633,20.8770436 22.0546329,22.2104649 23.1123686,22.8146237 Z M38.3708999,12.1106381 C38.7502045,12.8276953 39.4964787,13.2762375 40.3105959,13.2884427 C41.127797,13.3006479 41.8833225,12.8704136 42.2811298,12.1625104 C42.6789371,11.4576584 42.6542669,10.5941385 42.2163705,9.91369698 L40.0176371,6.06599864 C39.3762113,5.07127251 38.0594383,4.75088526 37.0294566,5.34283885 C35.9994749,5.93174113 35.6232541,7.21939275 36.1721665,8.26599111 L38.3708999,12.1106381 Z M56.9876649,8.79386725 C58.2150084,8.79386725 59.2110685,7.80524373 59.2110685,6.59387478 L59.2110685,2.19694116 C59.2110685,0.982520907 58.2150084,0 56.9876649,0 C55.7603214,0 54.7673451,0.982520907 54.7673451,2.19694116 L54.7673451,6.59387478 C54.7673451,7.80524373 55.7603214,8.79386725 56.9876649,8.79386725 Z M78.5155159,76.6030664 L37.0633782,76.6030664 C35.8360347,76.6030664 34.8399746,77.5855873 34.8399746,78.8000075 C34.8399746,80.0144278 35.8360347,81 37.0633782,81 L78.5155159,81 C79.7397756,81 80.7358358,80.0144278 80.7358358,78.8000075 C80.7358358,77.5855873 79.7397756,76.6030664 78.5155159,76.6030664 Z" id="Fill-4" fill="#5EB4D9"></path>
                </g>
            </g>
        </g>
    </g>
</svg>