<?xml version="1.0" encoding="UTF-8"?>
<svg width="116px" height="100px" viewBox="0 0 116 100" version="1.1" xmlns="http://www.w3.org/2000/svg" xmlns:xlink="http://www.w3.org/1999/xlink">
    <!-- Generator: Sketch 49.2 (51160) - http://www.bohemiancoding.com/sketch -->
    <title>16</title>
    <desc>Created with Sketch.</desc>
    <defs>
        <polygon id="path-1" points="0.00074359352 0.535212077 84.4647879 0.535212077 84.4647879 85 0.00074359352 85"></polygon>
    </defs>
    <g id="Page-1" stroke="none" stroke-width="1" fill="none" fill-rule="evenodd">
        <g id="Apple-TV-Copy" transform="translate(-516.000000, -3771.000000)">
            <g id="Page-1" transform="translate(516.000000, 3771.000000)">
                <g id="Group-33" transform="translate(16.000000, 8.000000)">
                    <path d="M41.9987747,41 C37.0362151,41 33,36.9585791 33,31.9987656 C33,27.0389521 37.0362151,23 41.9987747,23 C46.9613342,23 51,27.0389521 51,31.9987656 C51,36.9585791 46.9613342,41 41.9987747,41" id="Fill-1" fill="#FFFFFF"></path>
                    <path d="M54.5034692,61 L29.4949226,61 C28.785139,61 28.103042,60.7141345 27.624819,60.2186342 C27.1642147,59.7469561 26.9477559,59.1371096 27.0106799,58.5058232 C27.8815492,49.6654314 34.3249751,43 41.9991959,43 C49.6734168,43 56.1193596,49.6654314 56.9902289,58.5058232 C57.050636,59.1371096 56.8291432,59.7469561 56.3760899,60.2186342 C55.8978669,60.7141345 55.2132529,61 54.5034692,61" id="Fill-3" fill="#FFFFFF"></path>
                    <g id="Group-7">
                        <mask id="mask-2" fill="white">
                            <use xlink:href="#path-1"></use>
                        </mask>
                        <g id="Clip-6"></g>
                        <path d="M45.2484093,75.8659451 L45.2484093,69.9196756 C45.2484093,68.2515474 43.8975477,66.9031645 42.2318982,66.9031645 C40.5687274,66.9031645 39.2153872,68.2515474 39.2153872,69.9196756 L39.2153872,75.8659451 C23.2900926,74.420895 10.5796007,61.7104031 9.13455066,45.7826299 L15.0808202,45.7826299 C16.743991,45.7826299 18.0973312,44.4292897 18.0973312,42.7661189 C18.0973312,41.1054267 16.743991,39.7520865 15.0808202,39.7520865 L9.13455066,39.7520865 C10.5746434,23.8243133 23.2900926,11.1138214 39.2153872,9.67124993 L39.2153872,15.6150408 C39.2153872,17.2782116 40.5687274,18.6315518 42.2318982,18.6315518 C43.8975477,18.6315518 45.2484093,17.2782116 45.2484093,15.6150408 L45.2484093,9.67124993 C61.1761825,11.1088641 73.8841957,23.8243133 75.3292458,39.7520865 L69.3829763,39.7520865 C67.7148482,39.7520865 66.3689439,41.1054267 66.3689439,42.7661189 C66.3689439,44.4292897 67.7148482,45.7826299 69.3829763,45.7826299 L75.3292458,45.7826299 C73.8841957,61.7104031 61.1761825,74.420895 45.2484093,75.8659451 M81.4490205,39.7520865 L81.3622679,39.7520865 C79.8899527,20.4979716 64.5025242,5.110543 45.2484093,3.63574919 L45.2484093,3.55147526 C45.2484093,1.88830442 43.8975477,0.534964212 42.2318982,0.534964212 C40.5687274,0.534964212 39.2153872,1.88830442 39.2153872,3.55147526 L39.2153872,3.63574919 C19.9612723,5.110543 4.57632239,20.4979716 3.10400722,39.7520865 L3.01477599,39.7520865 C1.34664786,39.7520865 0.00074359352,41.1054267 0.00074359352,42.7661189 C0.00074359352,44.4292897 1.3540838,45.7826299 3.01477599,45.7826299 L3.10400722,45.7826299 C4.57632239,65.0392234 19.9612723,80.4241733 39.2153872,81.8989672 L39.2153872,81.9832411 C39.2153872,83.6538479 40.5687274,85.0022308 42.2318982,85.0022308 C43.8975477,85.0022308 45.2484093,83.6538479 45.2484093,81.9832411 L45.2484093,81.8989672 C64.5025242,80.4241733 79.8899527,65.0392234 81.3622679,45.7826299 L81.4490205,45.7826299 C83.1171486,45.7826299 84.4655315,44.4292897 84.4655315,42.7661189 C84.4655315,41.1054267 83.1171486,39.7520865 81.4490205,39.7520865" id="Fill-5" fill="#FFFFFF" mask="url(#mask-2)"></path>
                    </g>
                </g>
            </g>
        </g>
    </g>
</svg>