<?xml version="1.0" encoding="UTF-8"?>
<svg width="116px" height="100px" viewBox="0 0 116 100" version="1.1" xmlns="http://www.w3.org/2000/svg" xmlns:xlink="http://www.w3.org/1999/xlink">
    <!-- Generator: Sketch 49.2 (51160) - http://www.bohemiancoding.com/sketch -->
    <title>18</title>
    <desc>Created with Sketch.</desc>
    <defs></defs>
    <g id="Page-1" stroke="none" stroke-width="1" fill="none" fill-rule="evenodd">
        <g id="Apple-TV-Copy" transform="translate(-1300.000000, -3781.000000)" fill="#5EB4D9">
            <g id="Page-1" transform="translate(1300.000000, 3781.000000)">
                <g id="Group-35" transform="translate(15.000000, 17.000000)">
                    <path d="M64.2029571,58.4252265 L63.8691,57.0728846 C62.7806714,52.6505085 60.8236714,48.6207479 58.2152429,45.4171154 L57.3005286,44.2965256 L58.1962429,43.1650299 C61.3095286,39.271594 65.4813857,37.1258419 69.9409571,37.1258419 C74.0286714,37.1258419 77.9426714,38.952594 80.9582429,42.2925513 C83.8625286,45.5070897 85.7326714,49.8776624 86.2402429,54.6190385 C86.3352429,55.556953 86.0312429,56.5057735 85.3798143,57.2282949 C84.7012429,57.9835342 83.7376714,58.4143205 82.7252429,58.4143205 L64.2029571,58.4252265 Z" id="Fill-7"></path>
                    <path d="M16.5,37 C10.7102288,37 6,32.2891742 6,26.5 C6,20.7136051 10.7102288,16 16.5,16 C22.2897712,16 27,20.7136051 27,26.5 C27,32.2891742 22.2897712,37 16.5,37" id="Fill-1"></path>
                    <path d="M69.5,37 C63.7102288,37 59,32.2891742 59,26.5 C59,20.7136051 63.7102288,16 69.5,16 C75.2870103,16 80,20.7136051 80,26.5 C80,32.2891742 75.2870103,37 69.5,37" id="Fill-3"></path>
                    <path d="M20.6614776,59 L4.01627756,59 C2.85194141,59 1.74368567,58.4971831 0.97992388,57.6071703 C0.221503083,56.7198464 -0.128331862,55.5367478 0.0425798673,54.3724712 C1.39385072,44.8888604 8.08344261,38 15.9640756,38 C20.0793096,38 23.9969269,39.9010243 26.9932231,43.3454545 L28,44.4989757 L27.0039051,45.6524968 C24.1945435,48.9167734 22.1168978,53.0683739 20.9899486,57.6663252 L20.6614776,59 Z" id="Fill-5"></path>
                    <path d="M42.5,31 C33.9527642,31 27,24.0422101 27,15.5 C27,6.95778992 33.9527642,0 42.5,0 C51.0445241,0 58,6.95778992 58,15.5 C58,24.0422101 51.0445241,31 42.5,31" id="Fill-10"></path>
                    <path d="M63.7548357,67 L21.2462555,67 C20.0366729,67 18.8738242,66.4780168 18.0628541,65.5687558 C17.2793745,64.7015903 16.9110016,63.5846586 17.0182146,62.4312442 C18.4999533,46.2217025 29.4549227,34 42.5019201,34 C55.5461686,34 66.501138,46.2217025 67.9828766,62.4312442 C68.0873406,63.5846586 67.7107206,64.7015903 66.9382371,65.5687558 C66.124518,66.4780168 64.9644183,67 63.7548357,67" id="Fill-12"></path>
                </g>
            </g>
        </g>
    </g>
</svg>