<?xml version="1.0" encoding="UTF-8"?>
<svg width="75px" height="78px" viewBox="0 0 75 78" version="1.1" xmlns="http://www.w3.org/2000/svg" xmlns:xlink="http://www.w3.org/1999/xlink">
    <!-- Generator: Sketch 49.2 (51160) - http://www.bohemiancoding.com/sketch -->
    <title>2</title>
    <desc>Created with Sketch.</desc>
    <defs></defs>
    <g id="Page-1" stroke="none" stroke-width="1" fill="none" fill-rule="evenodd">
        <g id="Apple-TV-Copy" transform="translate(-412.000000, -1545.000000)" fill="#FFFFFF">
            <g id="Page-1" transform="translate(412.000000, 1545.000000)">
                <g id="Group-8" transform="translate(1.000000, 1.000000)">
                    <path d="M32.7649254,45.5071075 C28.5804904,45.5071075 25.1902985,42.0553879 25.1902985,37.7897375 C25.1902985,33.5240871 28.5804904,30.0723674 32.7649254,30.0723674 C36.9520256,30.0805339 40.3395522,33.5349758 40.3395522,37.7897375 C40.3395522,42.0472213 36.9413646,45.5071075 32.7649254,45.5071075 M48.4392324,54.9993366 C50.4061834,55.0374471 52,53.4286408 52,51.4414521 C52,49.4705964 50.4328358,47.8781232 48.5058635,47.8781232 C48.0394456,47.8781232 47.6076759,47.9788437 47.2052239,48.1340078 L41.8454158,44.2440177 C43.108742,42.411993 43.8523454,40.1879749 43.8523454,37.7788488 C43.8523454,32.3617178 39.891791,27.720407 34.8358209,26.593426 L34.8358209,10.7939142 C34.8358209,9.80304203 34.0495736,9 33.0794243,9 C32.1092751,9 31.3230277,9.80304203 31.3230277,10.7939142 L31.3230277,26.408318 C25.8272921,27.0779734 22,32.4161613 22,38.2388966 C22,44.4617918 26.6428571,49.0595477 32.7649254,49.0595477 C35.2382729,49.0595477 37.5170576,48.215673 39.3614072,46.8246409 L45.054371,50.9541825 C44.9877399,51.3652311 44.9744136,51.7191141 45.1609808,52.2962154 C45.6433902,53.7770794 46.9147122,54.9721148 48.4392324,54.9993366" id="Fill-1"></path>
                    <path d="M33.5013374,0 C12.8219725,0 0,17.8042243 0,29.6872878 C0,45.7450413 10.8131512,55.7485437 10.7693622,59.3772917 L10.7693622,74.8103356 C10.7693622,74.8103356 11.2181997,76 12.3430301,76 C13.8701722,76 14.3573251,74.8103356 14.3573251,74.8103356 L14.3573251,59.3772917 C14.3573251,54.7625889 3.65364639,42.6513706 3.58796286,29.6872878 C3.5168057,15.7155212 18.8128579,4.23987706 32.3053498,3.5934384 C32.3053498,3.5934384 33.61081,3.46578035 35.9124703,3.66405775 C53.5758664,4.66087702 58.3160279,16.5167792 59.8349595,21.3759337 C61.4359956,26.5175655 69.4357022,38.949287 69.4055973,40.3779708 C69.3782292,41.8202352 61.0309471,45.1257639 61.0309471,45.1257639 L61.0309471,54.6267825 C61.0309471,54.6267825 61.0199999,56.9545048 58.6389719,59.3772917 C56.4112055,61.6425432 51.4575726,61.7511883 51.4575726,61.7511883 L46.6736221,61.7511883 L46.6736221,74.8103356 C46.6736221,74.8103356 47.1334068,76 48.321184,76 C50.0508503,76 50.2615849,74.8103356 50.2615849,74.8103356 L50.2615849,65.3120332 C50.2615849,65.3120332 55.2316388,65.8335299 59.8349595,62.9381366 C64.7311194,59.8526143 64.6216468,54.6267825 64.6216468,54.6267825 L64.6216468,47.5023766 C66.9862539,46.7418605 72.6651425,44.3761124 72.9880865,41.5622029 C73.319241,38.7510096 66.6633099,28.7665201 63.4147119,20.1889854 C60.166114,11.6114506 54.1834391,0 33.5013374,0 Z" id="Fill-3" stroke="#FFFFFF" stroke-width="2"></path>
                </g>
            </g>
        </g>
    </g>
</svg>