<?xml version="1.0" encoding="UTF-8"?>
<svg width="76px" height="76px" viewBox="0 0 76 76" version="1.1" xmlns="http://www.w3.org/2000/svg" xmlns:xlink="http://www.w3.org/1999/xlink">
    <!-- Generator: Sketch 49.2 (51160) - http://www.bohemiancoding.com/sketch -->
    <title>3</title>
    <desc>Created with Sketch.</desc>
    <defs></defs>
    <g id="Page-1" stroke="none" stroke-width="1" fill="none" fill-rule="evenodd">
        <g id="Apple-TV-Copy" transform="translate(-923.000000, -1547.000000)" fill="#5EB4D9">
            <g id="Page-1" transform="translate(923.000000, 1547.000000)">
                <g id="Group-9">
                    <path d="M48.4340419,52 C46.6824598,52 44.9281194,51.8215297 43.1765374,51.8215297 C43.1765374,51.4617564 43.1765374,51.101983 43,50.7422096 C45.4549732,48.3994334 47.7334091,45.6997167 49.8353075,43 C52.9909135,46.0594901 56.3202986,48.7592068 60,50.9206799 C56.3202986,51.6402266 52.4640597,52 48.4340419,52 M40.8770891,46.6375998 C40.025718,45.9592078 39.0056791,45.621342 37.814295,45.621342 C35.602872,45.621342 33.731462,46.9754656 33.051436,49 C26.2484991,47.310671 19.7828979,44.7753473 14,41.2264262 C15.531397,35.4800473 18.082833,30.0715341 21.314295,25.3387526 C21.654308,25.3387526 21.9943209,25.5063553 22.5056791,25.5063553 C25.397128,25.5063553 27.608551,23.3115578 27.608551,20.4383683 C27.608551,19.7599764 27.4372059,19.0842448 27.268538,18.4085132 C29.3086159,16.3813184 31.3486938,14.6919894 33.5627941,13 C35.4315269,23.1439551 40.1943859,32.268992 47,39.7047 C45.12859,42.2400236 43.0885121,44.4374815 40.8770891,46.6375998 M51.7775355,40.1166614 C53.6684028,37.2135657 55.2157219,34.1411227 56.5899144,31.0659917 L57.103884,31.0659917 C60.0281008,31.0659917 62.2625161,28.845661 62.2625161,25.9425653 C62.2625161,23.89427 61.0587452,22.1846691 59.3382994,21.3325568 C60.0199855,18.2923704 60.3581234,15.2468079 60.3635336,12.0426504 C59.327479,11.1636575 58.2454377,10.3384257 57.103884,9.58577125 L57.103884,10.5722862 C57.103884,14.158147 56.7603359,17.5719726 56.0732397,20.9911742 C53.6684028,21.501904 51.9506621,23.5501994 51.9506621,25.9425653 C51.9506621,27.3107836 52.4646318,28.6736257 53.4952762,29.5311142 C52.2915052,32.2621746 51.0904393,34.9932351 49.3699935,37.5549483 C43.0130006,30.3832266 38.5441699,21.3325568 36.9968508,11.2550513 C40.8894945,8.90300614 45.114866,7.05093858 49.5106589,5.85475561 C47.6062661,5.19080686 45.6315407,4.69620537 43.5918928,4.37363917 C41.2790294,5.36015411 38.966166,6.34935711 36.6533026,7.49715515 C36.4855862,6.3332288 36.4828811,5.16392635 36.4828811,4 C35.379199,4.05107298 34.2917474,4.15590699 33.2178214,4.31181399 C33.2232316,6.1665696 33.390948,7.86004211 33.5613695,9.72017383 C30.6398579,11.7657811 27.8887678,13.9861117 25.3108043,16.3784777 C24.4505814,15.8677479 23.5930636,15.6957126 22.7328408,15.6957126 C19.8113291,15.6957126 17.5769138,17.9133551 17.5769138,20.8191389 C17.5769138,22.0153219 18.0908834,23.0394696 18.7806848,24.0636172 C15.3424984,28.845661 12.7645349,34.1411227 11.2172158,39.9473142 C8.64736757,38.2430895 6.4183624,36.3722055 4.18935724,34.3265983 C4.06762758,35.5012768 4,36.6920837 4,37.8963308 C4,38.1866404 4.03516634,38.4661978 4.04328165,38.7538193 C6.03423773,40.404283 8.03060401,42.0439944 10.1865714,43.3611397 C9.49947513,47.1217239 8.98280039,51.0489673 8.98280039,54.9762107 L8.98280039,55.4976928 C10.0810724,57.2933112 11.3389454,58.9787196 12.7428941,60.5377895 C12.5805879,58.739483 12.4209868,56.9358004 12.4209868,54.9762107 C12.4209868,51.7290444 12.7645349,48.4845661 13.4516311,45.4121231 C19.6382025,48.997984 26.3414486,51.7290444 33.3882429,53.269298 C33.3882429,53.4386452 33.3882429,53.4386452 33.5613695,53.6106805 C27.580386,57.5137315 20.75,60.0620044 13.4110546,61.2662515 C14.3280846,62.228574 15.2856912,63.1505757 16.3109254,64 C23.4848595,62.6264056 29.9798127,59.9060974 35.7930798,56.0003584 C36.4828811,56.5137763 37.3403989,56.6831235 38.2006218,56.6831235 C39.9183624,56.6831235 41.29526,55.8310112 42.3231993,54.6348282 C44.3871932,54.8041754 46.4484819,54.9762107 48.5124758,54.9762107 C54.0119509,54.9762107 59.3382994,54.2934456 64.4969315,53.0945746 C65.6547158,53.5918642 66.8152051,54.2316204 67.9756944,54.5837552 C69.2443879,52.3553604 70.2642119,49.9737467 71,47.4711706 C69.1172481,48.320595 67.0640746,49.000672 64.8404797,49.5087138 C60.0281008,47.1217239 55.55927,43.8745576 51.7775355,40.1166614" id="Fill-1"></path>
                    <path d="M38,5.23758658 C19.9349414,5.23758658 5.23776706,19.9342545 5.23776706,38.0013094 C5.23776706,56.0631267 19.9349414,70.7624134 38,70.7624134 C56.0650586,70.7624134 70.7622329,56.0631267 70.7622329,38.0013094 C70.7622329,19.9342545 56.0650586,5.23758658 38,5.23758658 M38,76 C17.0489318,76 0,58.9542745 0,38.0013094 C0,17.0483443 17.0489318,0 38,0 C58.9536871,0 76,17.0483443 76,38.0013094 C76,58.9542745 58.9536871,76 38,76" id="Fill-3"></path>
                </g>
            </g>
        </g>
    </g>
</svg>