<?xml version="1.0" encoding="UTF-8"?>
<svg width="73px" height="68px" viewBox="0 0 73 68" version="1.1" xmlns="http://www.w3.org/2000/svg" xmlns:xlink="http://www.w3.org/1999/xlink">
    <!-- Generator: Sketch 49.2 (51160) - http://www.bohemiancoding.com/sketch -->
    <title>4</title>
    <desc>Created with Sketch.</desc>
    <defs></defs>
    <g id="Page-1" stroke="none" stroke-width="1" fill="none" fill-rule="evenodd">
        <g id="Apple-TV-Copy" transform="translate(-1436.000000, -1550.000000)" fill="#5EB4D9" stroke="#5EB4D9" stroke-width="2">
            <g id="Page-1" transform="translate(1437.000000, 1551.000000)">
                <g id="Group-10">
                    <path d="M3.08069522,66 L2.91930478,66 C1.86157666,66 1,65.057614 1,63.9033948 L1,54.0966052 C1,52.9396702 1.86157666,52 2.91930478,52 L3.08069522,52 C4.13842334,52 5,52.9396702 5,54.0966052 L5,63.9033948 C5,65.057614 4.12849162,66 3.08069522,66" id="Fill-1"></path>
                    <path d="M26.0806952,66 L25.9193048,66 C24.8615767,66 24,65.1108475 24,64.0218278 L24,40.9781722 C24,39.8891525 24.8615767,39 25.9193048,39 L26.0806952,39 C27.1384233,39 28,39.8891525 28,40.9781722 L28,64.0218278 C28,65.1108475 27.1384233,66 26.0806952,66" id="Fill-5"></path>
                    <path d="M49.0819876,66 L48.9204969,66 C47.8621118,66 47,65.0795756 47,63.9522546 L47,43.0503979 C47,41.9204244 47.8621118,41 48.9204969,41 L49.0819876,41 C50.1403727,41 51,41.9204244 51,43.0503979 L51,63.9522546 C51,65.0795756 50.1403727,66 49.0819876,66" id="Fill-9"></path>
                    <path d="M68.0806952,66 L67.9193048,66 C66.8615767,66 66,65.0756286 66,63.9434735 L66,27.0591904 C66,25.9243714 66.8615767,25 67.9193048,25 L68.0806952,25 C69.1384233,25 70,25.9243714 70,27.0591904 L70,63.9434735 C70,65.0756286 69.1309745,66 68.0806952,66" id="Fill-13"></path>
                    <path d="M68.8493537,0 L57.0421986,0 C55.8491784,0 54.8835275,0.970630817 54.8835275,2.17249224 C54.8835275,3.37166494 55.8491784,4.33960703 57.0421986,4.33960703 L64.154846,4.33960703 C64.1468212,4.35036194 64.1361214,4.35842813 64.1280966,4.35842813 L44.1543705,21.3780765 L33.2299434,13.3468459 C32.4756122,12.7929679 31.4484379,12.7929679 30.6941067,13.336091 L0.890001103,35.0744571 C-0.0756497785,35.7789038 -0.2869695,37.1367115 0.411188062,38.1046536 C0.833827506,38.6854188 1.494536,39 2.15791943,39 C2.59660848,39 3.03797245,38.8601861 3.42583777,38.5859359 L31.9540002,17.7778697 L42.9773999,25.8870734 C43.7852297,26.4785936 44.8873022,26.4409514 45.6416334,25.7956567 L66.6799829,7.85915202 L66.6799829,14.7046536 C66.6799829,15.9038263 67.6456338,16.8717684 68.8413289,16.8717684 C70.0343491,16.8717684 71,15.9038263 71,14.7046536 L71,2.17249224 C71,0.970630817 70.0343491,0 68.8493537,0" id="Fill-17"></path>
                </g>
            </g>
        </g>
    </g>
</svg>