<svg xmlns="http://www.w3.org/2000/svg" width="30" height="19" viewBox="0 0 30 19">
  <g fill="#FFF" fill-rule="evenodd" transform="translate(-1)">
    <path d="M6.95557022 1.55624247L6.81680985 1.40094217C6.57916656 1.13497233 6.57916656.732950566 6.81680985.466980724L6.95557022.311680429C7.13276008.113369921 7.38608722 4.8852117e-17 7.65202576 0L29.1477775 4.4408921e-16C29.413716 3.95237093e-16 29.6670431.113369921 29.844233.311680429L29.9829934.466980724C30.2206366.732950566 30.2206366 1.13497233 29.9829934 1.40094217L29.844233 1.55624247C29.6670431 1.75455297 29.413716 1.8679229 29.1477775 1.8679229L7.65202576 1.8679229C7.38608722 1.8679229 7.13276008 1.75455297 6.95557022 1.55624247zM1.34799849 10.0562425L1.20923812 9.90094217C.971594831 9.63497233.971594831 9.23295057 1.20923812 8.96698072L1.34799849 8.81168043C1.52518835 8.61336992 1.77851549 8.5 2.04445403 8.5L23.5402057 8.5C23.8061443 8.5 24.0594714 8.61336992 24.2366613 8.81168043L24.3754216 8.96698072C24.6130649 9.23295057 24.6130649 9.63497233 24.3754216 9.90094217L24.2366613 10.0562425C24.0594714 10.254553 23.8061443 10.3679229 23.5402057 10.3679229L2.04445403 10.3679229C1.77851549 10.3679229 1.52518835 10.254553 1.34799849 10.0562425zM6.95557022 18.5562425L6.81680985 18.4009422C6.57916656 18.1349723 6.57916656 17.7329506 6.81680985 17.4669807L6.95557022 17.3116804C7.13276008 17.1133699 7.38608722 17 7.65202576 17L29.1477775 17C29.413716 17 29.6670431 17.1133699 29.844233 17.3116804L29.9829934 17.4669807C30.2206366 17.7329506 30.2206366 18.1349723 29.9829934 18.4009422L29.844233 18.5562425C29.6670431 18.754553 29.413716 18.8679229 29.1477775 18.8679229L7.65202576 18.8679229C7.38608722 18.8679229 7.13276008 18.754553 6.95557022 18.5562425z"/>
  </g>
</svg>
